<svg width="18" height="18" viewBox="0 0 18 18" fill="none" xmlns="http://www.w3.org/2000/svg">
<path d="M3.53998 2C3.59998 2.89 3.74998 3.76 3.98998 4.59L2.78998 5.79C2.37998 4.59 2.11998 3.32 2.02998 2H3.53998ZM13.4 14.02C14.25 14.26 15.12 14.41 16 14.47V15.96C14.68 15.87 13.41 15.61 12.2 15.21L13.4 14.02ZM4.49998 0H0.999985C0.449985 0 -1.52588e-05 0.45 -1.52588e-05 1C-1.52588e-05 10.39 7.60998 18 17 18C17.55 18 18 17.55 18 17V13.51C18 12.96 17.55 12.51 17 12.51C15.76 12.51 14.55 12.31 13.43 11.94C13.33 11.9 13.22 11.89 13.12 11.89C12.86 11.89 12.61 11.99 12.41 12.18L10.21 14.38C7.37998 12.93 5.05998 10.62 3.61998 7.79L5.81998 5.59C6.09998 5.31 6.17998 4.92 6.06998 4.57C5.69998 3.45 5.49998 2.25 5.49998 1C5.49998 0.45 5.04998 0 4.49998 0Z" fill="white"/>
</svg>
