<svg width="47" height="41" viewBox="0 0 47 41" fill="none" xmlns="http://www.w3.org/2000/svg">
<path fill-rule="evenodd" clip-rule="evenodd" d="M0.689457 15.5874C0.420723 14.8537 0.801413 14.0424 1.53975 13.7753L38.9725 0.236053C39.7108 -0.031002 40.5272 0.347309 40.7959 1.08104L46.3106 16.1377C46.5793 16.8715 46.1986 17.6827 45.4603 17.9498L34.2928 21.9888L44.8402 21.989C45.6259 21.989 46.2629 22.622 46.2629 23.4028V39.4258C46.2629 40.2066 45.6259 40.8396 44.8402 40.8396H5.00516C4.21944 40.8396 3.58248 40.2066 3.58248 39.4258L3.58236 23.4865L0.689457 15.5874ZM10.2217 22.9315H5.95362C5.19595 22.9315 4.57662 23.5201 4.53335 24.2623L4.53094 24.3453V38.4833C4.53094 39.2362 5.12321 39.8516 5.87002 39.8946L5.95362 39.897H10.2217V36.5982C10.2217 36.3379 10.434 36.1269 10.6959 36.1269C10.9578 36.1269 11.1701 36.3379 11.1701 36.5982V39.897H43.8918C44.6494 39.897 45.2688 39.3085 45.312 38.5663L45.3144 38.4833V24.3453C45.3144 23.5645 44.6775 22.9315 43.8918 22.9315H11.1701V26.2304C11.1701 26.4907 10.9578 26.7016 10.6959 26.7016C10.434 26.7016 10.2217 26.4907 10.2217 26.2304V22.9315ZM35.8299 35.6557C36.0918 35.6557 36.3041 35.8667 36.3041 36.1269V37.0695C36.3041 37.3297 36.0918 37.5407 35.8299 37.5407H33.933C33.6711 37.5407 33.4588 37.3297 33.4588 37.0695V36.1269C33.4588 35.8667 33.6711 35.6557 33.933 35.6557H35.8299ZM40.5722 35.6557C40.8341 35.6557 41.0464 35.8667 41.0464 36.1269V37.0695C41.0464 37.3297 40.8341 37.5407 40.5722 37.5407H38.6753C38.4134 37.5407 38.201 37.3297 38.201 37.0695V36.1269C38.201 35.8667 38.4134 35.6557 38.6753 35.6557H40.5722ZM10.6959 32.3568C10.9578 32.3568 11.1701 32.5678 11.1701 32.8281V33.7706C11.1701 34.0309 10.9578 34.2419 10.6959 34.2419C10.434 34.2419 10.2217 34.0309 10.2217 33.7706V32.8281C10.2217 32.5678 10.434 32.3568 10.6959 32.3568ZM24.9227 30.4718C25.1846 30.4718 25.3969 30.6828 25.3969 30.943V31.8856C25.3969 32.1458 25.1846 32.3568 24.9227 32.3568H15.9124C15.6505 32.3568 15.4382 32.1458 15.4382 31.8856V30.943C15.4382 30.6828 15.6505 30.4718 15.9124 30.4718H24.9227ZM40.5722 30.4718C40.8341 30.4718 41.0464 30.6828 41.0464 30.943V31.8856C41.0464 32.1458 40.8341 32.3568 40.5722 32.3568H36.3041C36.0422 32.3568 35.8299 32.1458 35.8299 31.8856V30.943C35.8299 30.6828 36.0422 30.4718 36.3041 30.4718H40.5722ZM32.5103 30.4718C32.7722 30.4718 32.9845 30.6828 32.9845 30.943V31.8856C32.9845 32.1458 32.7722 32.3568 32.5103 32.3568H28.2423C27.9804 32.3568 27.768 32.1458 27.768 31.8856V30.943C27.768 30.6828 27.9804 30.4718 28.2423 30.4718H32.5103ZM10.6959 28.5867C10.9578 28.5867 11.1701 28.7977 11.1701 29.058V30.0005C11.1701 30.2608 10.9578 30.4718 10.6959 30.4718C10.434 30.4718 10.2217 30.2608 10.2217 30.0005V29.058C10.2217 28.7977 10.434 28.5867 10.6959 28.5867ZM40.5722 25.2879C40.8341 25.2879 41.0464 25.4988 41.0464 25.7591V26.7016C41.0464 26.9619 40.8341 27.1729 40.5722 27.1729H15.9124C15.6505 27.1729 15.4382 26.9619 15.4382 26.7016V25.7591C15.4382 25.4988 15.6505 25.2879 15.9124 25.2879H40.5722ZM9.76584 18.3226L10.0902 19.2083C10.1798 19.4529 10.0529 19.7233 9.8068 19.8123C9.56068 19.9014 9.28855 19.7752 9.19897 19.5307L8.87458 18.645C8.785 18.4004 8.9119 18.13 9.15802 18.041C9.40413 17.9519 9.67626 18.078 9.76584 18.3226ZM23.7834 15.2585L24.1078 16.1442C24.1974 16.3888 24.0705 16.6592 23.8244 16.7483L15.3575 19.8107C15.1114 19.8997 14.8392 19.7736 14.7497 19.529L14.4253 18.6434C14.3357 18.3988 14.4626 18.1284 14.7087 18.0393L23.1756 14.9769C23.4217 14.8879 23.6939 15.014 23.7834 15.2585ZM35.817 16.4226L36.1414 17.3083C36.231 17.5529 36.1041 17.8233 35.858 17.9123L34.0755 18.5571C33.8294 18.6461 33.5572 18.52 33.4676 18.2754L33.1433 17.3897C33.0537 17.1452 33.1806 16.8747 33.4267 16.7857L35.2092 16.141C35.4553 16.052 35.7274 16.1781 35.817 16.4226ZM40.2733 14.8108L40.5977 15.6965C40.6873 15.9411 40.5604 16.2115 40.3143 16.3005L38.5317 16.9453C38.2856 17.0343 38.0135 16.9082 37.9239 16.6636L37.5995 15.7779C37.5099 15.5333 37.6368 15.2629 37.883 15.1739L39.6655 14.5292C39.9116 14.4401 40.1837 14.5662 40.2733 14.8108ZM30.9135 12.6796L31.2379 13.5653C31.3274 13.8099 31.2006 14.0803 30.9544 14.1693L26.9438 15.62C26.6977 15.709 26.4255 15.5829 26.336 15.3383L26.0116 14.4526C25.922 14.2081 26.0489 13.9376 26.295 13.8486L30.3057 12.398C30.5518 12.309 30.8239 12.4351 30.9135 12.6796ZM36.705 5.06826L37.0294 5.95394C37.119 6.19852 36.9921 6.46895 36.746 6.55797L13.5733 14.9394C13.3272 15.0284 13.0551 14.9023 12.9655 14.6578L12.6411 13.7721C12.5515 13.5275 12.6784 13.2571 12.9246 13.1681L36.0972 4.7866C36.3433 4.69758 36.6154 4.82368 36.705 5.06826ZM38.4891 9.93954L38.8135 10.8252C38.9031 11.0698 38.7762 11.3402 38.5301 11.4293L34.5195 12.8799C34.2733 12.9689 34.0012 12.8428 33.9116 12.5982L33.5872 11.7125C33.4977 11.468 33.6246 11.1975 33.8707 11.1085L37.8813 9.65788C38.1274 9.56886 38.3996 9.69496 38.4891 9.93954ZM4.52055 22.0731L4.59376 22.049L4.69287 22.0232L4.8054 22.0029L4.83925 21.9985L4.92157 21.9914L5.00516 21.989L31.52 21.9888L44.2446 17.3865L44.3253 17.3545C44.9585 17.0817 45.2998 16.3959 45.1434 15.7356L45.1212 15.6533L45.0949 15.5744L40.2291 2.28909L40.1982 2.21185C39.9135 1.55542 39.1772 1.21344 38.488 1.41704L38.4056 1.4441L7.6573 12.5657L8.79267 15.6656L8.80858 15.7183C8.86351 15.9478 8.73777 16.1869 8.50924 16.2696C8.2807 16.3522 8.02973 16.2494 7.92333 16.0385L7.90141 15.9879L6.76605 12.888L2.7554 14.3387L2.67474 14.3706C2.04151 14.6435 1.70021 15.3293 1.85662 15.9895L1.87878 16.0719L1.9051 16.1507L4.14803 22.2743L4.23472 22.2141L4.30579 22.1713L4.40467 22.1207L4.45139 22.1001C4.47415 22.0905 4.49721 22.0815 4.52055 22.0731Z" fill="white"/>
</svg>
